<svg xmlns="http://www.w3.org/2000/svg" xmlns:xlink="http://www.w3.org/1999/xlink" width="1024" zoomAndPan="magnify" viewBox="0 0 768 767.999994" height="1024" preserveAspectRatio="xMidYMid meet" version="1.0"><defs><clipPath id="8b30b4501d"><path d="M 15.460938 9.851562 L 750 9.851562 L 750 758.351562 L 15.460938 758.351562 Z M 15.460938 9.851562 " clip-rule="nonzero"/></clipPath></defs><rect x="-76.8" width="921.6" fill="#ffffff" y="-76.799999" height="921.599993" fill-opacity="1"/><rect x="-76.8" width="921.6" fill="#ffffff" y="-76.799999" height="921.599993" fill-opacity="1"/><path fill="#c8eaf6" d="M 378.039062 541.011719 L 300.449219 675.402344 C 276.253906 717.296875 212.972656 680.757812 237.121094 638.863281 L 314.757812 504.472656 Z M 378.039062 541.011719 " fill-opacity="1" fill-rule="evenodd"/><path fill="#edf8fe" d="M 375.570312 545.222656 L 300.449219 675.402344 C 290.804688 692.097656 274.980469 696.292969 260.945312 692.726562 C 256.332031 683.257812 255.960938 671.5625 263.007812 659.433594 L 340.597656 524.992188 Z M 375.570312 545.222656 " fill-opacity="1" fill-rule="evenodd"/><path fill="#c8eaf6" d="M 473.417969 38.113281 C 604.09375 38.113281 709.992188 144.0625 709.992188 274.695312 C 709.992188 405.378906 604.09375 511.28125 473.417969 511.28125 C 342.777344 511.28125 236.84375 405.378906 236.84375 274.695312 C 236.84375 144.0625 342.792969 38.113281 473.417969 38.113281 Z M 473.417969 38.113281 " fill-opacity="1" fill-rule="evenodd"/><path fill="#edf8fe" d="M 425.414062 506.441406 L 404.800781 539.1875 C 400.410156 546.140625 391.492188 548.785156 384.410156 544.671875 L 308.371094 500.777344 C 301.289062 496.664062 298.820312 487.519531 302.933594 480.390625 L 318.257812 453.867188 C 331.566406 468.046875 350.210938 476.324219 367.90625 486.519531 C 385.636719 496.746094 406.492188 502.003906 425.414062 506.441406 Z M 425.414062 506.441406 " fill-opacity="1" fill-rule="evenodd"/><path fill="#97d9f0" d="M 121.800781 340.191406 L 137.027344 340.191406 C 141.464844 340.191406 145.078125 343.851562 145.078125 348.289062 L 145.078125 354.191406 C 145.078125 357.933594 147.496094 361.046875 151.109375 362.015625 C 158.242188 363.9375 164.96875 366.773438 171.226562 370.386719 C 174.417969 372.210938 178.355469 371.710938 181.015625 369.113281 L 185.179688 364.902344 C 188.339844 361.742188 193.453125 361.742188 196.617188 364.902344 L 207.359375 375.695312 C 210.519531 378.808594 210.519531 383.972656 207.359375 387.132812 L 203.195312 391.292969 C 200.582031 393.90625 200.035156 397.828125 201.921875 401.085938 C 205.535156 407.296875 208.375 414.070312 210.246094 421.203125 C 211.214844 424.765625 214.359375 427.1875 218.070312 427.1875 L 224.023438 427.1875 C 228.457031 427.1875 232.070312 430.847656 232.070312 435.285156 L 232.070312 450.511719 C 232.070312 454.949219 228.457031 458.609375 224.023438 458.609375 L 218.070312 458.609375 C 214.359375 458.609375 211.214844 460.984375 210.246094 464.597656 C 208.375 471.726562 205.535156 478.5 201.921875 484.710938 C 200.050781 487.953125 200.601562 491.84375 203.195312 494.503906 L 207.359375 498.664062 C 210.519531 501.828125 210.519531 506.941406 207.359375 510.101562 L 196.617188 520.894531 C 193.453125 524.007812 188.339844 524.007812 185.179688 520.894531 L 181.015625 516.683594 C 178.371094 514.070312 174.4375 513.523438 171.226562 515.410156 C 164.96875 519.023438 158.242188 521.863281 151.109375 523.78125 C 147.496094 524.75 145.078125 527.847656 145.078125 531.558594 L 145.078125 537.511719 C 145.078125 541.945312 141.464844 545.609375 137.027344 545.609375 L 121.800781 545.609375 C 117.316406 545.609375 113.703125 541.945312 113.703125 537.511719 L 113.703125 531.558594 C 113.703125 527.847656 111.285156 524.75 107.71875 523.78125 C 100.589844 521.863281 93.8125 519.023438 87.554688 515.410156 C 84.363281 513.539062 80.425781 514.085938 77.8125 516.683594 L 73.601562 520.894531 C 70.488281 524.054688 65.328125 524.054688 62.164062 520.894531 L 51.421875 510.101562 C 48.261719 506.941406 48.261719 501.828125 51.421875 498.664062 L 55.632812 494.503906 C 58.246094 491.859375 58.746094 487.96875 56.90625 484.710938 C 53.292969 478.5 50.453125 471.726562 48.535156 464.597656 C 47.566406 460.984375 44.421875 458.609375 40.710938 458.609375 L 34.808594 458.609375 C 30.371094 458.609375 26.710938 454.949219 26.710938 450.511719 L 26.710938 435.285156 C 26.710938 430.847656 30.371094 427.1875 34.808594 427.1875 L 40.710938 427.1875 C 44.421875 427.1875 47.566406 424.816406 48.535156 421.203125 C 50.453125 414.070312 53.292969 407.296875 56.90625 401.085938 C 58.730469 397.84375 58.230469 393.90625 55.632812 391.292969 L 51.421875 387.132812 C 48.261719 383.972656 48.261719 378.808594 51.421875 375.695312 L 62.164062 364.902344 C 65.328125 361.742188 70.488281 361.742188 73.601562 364.902344 L 77.8125 369.113281 C 80.425781 371.726562 84.34375 372.226562 87.554688 370.386719 C 93.8125 366.773438 100.589844 363.9375 107.71875 362.015625 C 111.285156 361.046875 113.703125 357.949219 113.703125 354.191406 L 113.703125 348.289062 C 113.703125 343.835938 117.316406 340.191406 121.800781 340.191406 Z M 121.800781 340.191406 " fill-opacity="1" fill-rule="evenodd"/><path fill="#c8eaf6" d="M 129.527344 392.261719 C 157.320312 392.261719 179.871094 414.796875 179.871094 442.609375 C 179.871094 470.402344 157.335938 492.953125 129.527344 492.953125 C 101.734375 492.953125 79.230469 470.402344 79.230469 442.609375 C 79.230469 414.8125 101.734375 392.261719 129.527344 392.261719 Z M 129.527344 392.261719 " fill-opacity="1" fill-rule="evenodd"/><path fill="#97d9f0" d="M 627.789062 541.703125 L 643.019531 541.703125 C 647.453125 541.703125 651.117188 545.367188 651.117188 549.800781 L 651.117188 555.707031 C 651.117188 559.449219 653.535156 562.5625 657.101562 563.53125 C 664.230469 565.449219 671.003906 568.289062 677.265625 571.902344 C 680.457031 573.726562 684.394531 573.226562 687.007812 570.628906 L 691.21875 566.417969 C 694.378906 563.257812 699.492188 563.257812 702.652344 566.417969 L 713.398438 577.210938 C 716.558594 580.324219 716.558594 585.484375 713.398438 588.648438 L 709.234375 592.808594 C 706.589844 595.453125 706.074219 599.34375 707.960938 602.601562 C 711.574219 608.8125 714.363281 615.585938 716.285156 622.714844 C 717.253906 626.328125 720.398438 628.703125 724.109375 628.703125 L 730.011719 628.703125 C 734.496094 628.703125 738.109375 632.363281 738.109375 636.800781 L 738.109375 652.027344 C 738.109375 656.511719 734.496094 660.125 730.011719 660.125 L 724.109375 660.125 C 720.398438 660.125 717.253906 662.546875 716.285156 666.109375 C 714.363281 673.242188 711.574219 680.015625 707.960938 686.273438 C 706.089844 689.46875 706.589844 693.40625 709.234375 696.019531 L 713.398438 700.226562 C 716.558594 703.390625 716.558594 708.503906 713.398438 711.664062 L 702.652344 722.410156 C 699.492188 725.570312 694.378906 725.570312 691.21875 722.410156 L 687.007812 718.246094 C 684.394531 715.601562 680.472656 715.085938 677.265625 716.972656 C 671.003906 720.585938 664.230469 723.425781 657.101562 725.296875 C 653.535156 726.265625 651.117188 729.410156 651.117188 733.121094 L 651.117188 739.074219 C 651.117188 743.507812 647.453125 747.121094 643.019531 747.121094 L 627.789062 747.121094 C 623.355469 747.121094 619.691406 743.507812 619.691406 739.074219 L 619.691406 733.121094 C 619.691406 729.410156 617.320312 726.265625 613.707031 725.296875 C 606.578125 723.425781 599.804688 720.585938 593.59375 716.972656 C 590.351562 715.101562 586.414062 715.601562 583.800781 718.246094 L 579.640625 722.410156 C 576.480469 725.570312 571.316406 725.570312 568.171875 722.410156 L 557.429688 711.664062 C 554.265625 708.503906 554.265625 703.390625 557.429688 700.226562 L 561.636719 696.019531 C 564.25 693.40625 564.75 689.484375 562.914062 686.273438 C 559.300781 680.015625 556.460938 673.242188 554.539062 666.109375 C 553.574219 662.546875 550.425781 660.125 546.71875 660.125 L 540.8125 660.125 C 536.328125 660.125 532.714844 656.511719 532.714844 652.027344 L 532.714844 636.800781 C 532.714844 632.363281 536.328125 628.703125 540.8125 628.703125 L 546.71875 628.703125 C 550.425781 628.703125 553.574219 626.328125 554.539062 622.714844 C 556.460938 615.585938 559.300781 608.8125 562.914062 602.601562 C 564.734375 599.359375 564.234375 595.46875 561.636719 592.808594 L 557.429688 588.648438 C 554.265625 585.484375 554.265625 580.324219 557.429688 577.210938 L 568.171875 566.417969 C 571.332031 563.257812 576.496094 563.257812 579.609375 566.417969 L 583.816406 570.628906 C 586.429688 573.242188 590.351562 573.742188 593.609375 571.902344 C 599.835938 568.289062 606.59375 565.449219 613.726562 563.53125 C 617.339844 562.5625 619.710938 559.464844 619.710938 555.707031 L 619.710938 549.800781 C 619.691406 545.367188 623.355469 541.703125 627.789062 541.703125 Z M 627.789062 541.703125 " fill-opacity="1" fill-rule="evenodd"/><path fill="#c8eaf6" d="M 635.566406 593.824219 C 663.359375 593.824219 685.863281 616.328125 685.863281 644.121094 C 685.863281 671.917969 663.359375 694.46875 635.566406 694.46875 C 607.773438 694.46875 585.222656 671.917969 585.222656 644.121094 C 585.222656 616.328125 607.773438 593.824219 635.566406 593.824219 Z M 635.566406 593.824219 " fill-opacity="1" fill-rule="evenodd"/><path fill="#edf8fe" d="M 473.417969 73.90625 C 584.351562 73.90625 674.246094 163.808594 674.246094 274.695312 C 674.246094 385.632812 584.351562 475.53125 473.417969 475.53125 C 362.535156 475.53125 272.589844 385.632812 272.589844 274.695312 C 272.609375 163.808594 362.535156 73.90625 473.417969 73.90625 Z M 473.417969 73.90625 " fill-opacity="1" fill-rule="evenodd"/><path fill="#97d9f0" d="M 619.613281 209.636719 L 620.757812 409.234375 C 613.675781 423.363281 588.109375 439.6875 578.414062 445.722656 C 578.414062 327.15625 577.816406 217.445312 577.816406 99.75 C 577.816406 84.621094 565.429688 72.230469 550.332031 72.230469 L 369.859375 72.230469 L 369.859375 48.679688 C 369.859375 33.546875 382.199219 21.15625 397.347656 21.15625 L 592.140625 21.15625 C 607.222656 21.15625 619.628906 33.546875 619.628906 48.679688 L 619.628906 209.636719 Z M 619.613281 209.636719 " fill-opacity="1" fill-rule="evenodd"/><path fill="#c8eaf6" d="M 355.550781 72.230469 L 550.347656 72.230469 C 565.429688 72.230469 577.832031 84.621094 577.832031 99.75 C 577.832031 217.445312 577.832031 327.15625 577.832031 445.722656 C 552.863281 464.886719 523.101562 471.289062 492.242188 474.660156 L 455.207031 474.660156 C 432.398438 472.195312 409.394531 468.804688 388.214844 456.59375 C 362.519531 441.785156 355.664062 440.867188 331.46875 416.71875 L 328.082031 209.71875 L 328.082031 99.75 C 328.066406 84.621094 340.40625 72.230469 355.550781 72.230469 Z M 355.550781 72.230469 " fill-opacity="1" fill-rule="evenodd"/><path fill="#edf8fe" d="M 577.816406 103.734375 L 577.816406 433.929688 C 552.847656 453.144531 523.085938 464.886719 492.226562 468.226562 L 455.191406 468.226562 C 435.078125 466.03125 415.042969 460.222656 396.121094 450.53125 C 393.425781 446.785156 390.863281 442.929688 388.441406 439.011719 L 388.441406 131.207031 C 388.441406 116.074219 400.832031 103.71875 415.960938 103.71875 L 577.816406 103.71875 Z M 577.816406 103.734375 " fill-opacity="1" fill-rule="evenodd"/><g clip-path="url(#8b30b4501d)"><path fill="#128cb5" d="M 433.140625 162.355469 C 426.882812 162.355469 421.847656 157.277344 421.847656 151.066406 C 421.847656 144.804688 426.882812 139.773438 433.140625 139.773438 L 480.46875 139.773438 C 486.726562 139.773438 491.761719 144.804688 491.761719 151.066406 C 491.761719 157.292969 486.726562 162.355469 480.46875 162.355469 Z M 433.140625 397.34375 C 426.882812 397.34375 421.847656 392.3125 421.847656 386.050781 C 421.847656 379.824219 426.882812 374.761719 433.140625 374.761719 L 480.46875 374.761719 C 486.726562 374.761719 491.761719 379.839844 491.761719 386.050781 C 491.761719 392.3125 486.726562 397.34375 480.46875 397.34375 Z M 508.957031 397.34375 C 502.730469 397.34375 497.664062 392.3125 497.664062 386.050781 C 497.664062 379.824219 502.746094 374.761719 508.957031 374.761719 L 540.457031 374.761719 C 546.683594 374.761719 551.75 379.839844 551.75 386.050781 C 551.75 392.3125 546.667969 397.34375 540.457031 397.34375 Z M 433.140625 319.007812 C 426.882812 319.007812 421.847656 313.976562 421.847656 307.71875 C 421.847656 301.507812 426.882812 296.425781 433.140625 296.425781 L 480.46875 296.425781 C 486.726562 296.425781 491.761719 301.507812 491.761719 307.71875 C 491.761719 313.976562 486.726562 319.007812 480.46875 319.007812 Z M 508.957031 319.007812 C 502.730469 319.007812 497.664062 313.976562 497.664062 307.71875 C 497.664062 301.507812 502.746094 296.425781 508.957031 296.425781 L 540.457031 296.425781 C 546.683594 296.425781 551.75 301.507812 551.75 307.71875 C 551.75 313.976562 546.667969 319.007812 540.457031 319.007812 Z M 433.140625 240.675781 C 426.882812 240.675781 421.847656 235.59375 421.847656 229.382812 C 421.847656 223.125 426.882812 218.089844 433.140625 218.089844 L 480.46875 218.089844 C 486.726562 218.089844 491.761719 223.125 491.761719 229.382812 C 491.761719 235.59375 486.726562 240.675781 480.46875 240.675781 Z M 508.957031 240.675781 C 502.730469 240.675781 497.664062 235.59375 497.664062 229.382812 C 497.664062 223.125 502.746094 218.089844 508.957031 218.089844 L 540.457031 218.089844 C 546.683594 218.089844 551.75 223.125 551.75 229.382812 C 551.75 235.59375 546.667969 240.675781 540.457031 240.675781 Z M 508.957031 162.355469 C 502.730469 162.355469 497.664062 157.277344 497.664062 151.066406 C 497.664062 144.804688 502.746094 139.773438 508.957031 139.773438 L 540.457031 139.773438 C 546.683594 139.773438 551.75 144.804688 551.75 151.066406 C 551.75 157.292969 546.667969 162.355469 540.457031 162.355469 Z M 358.101562 395.277344 C 353.390625 391.214844 352.84375 384.117188 356.859375 379.40625 C 360.921875 374.648438 368.019531 374.097656 372.730469 378.164062 L 377.8125 382.503906 L 387.136719 360.46875 C 389.554688 354.757812 396.136719 352.046875 401.863281 354.484375 C 407.574219 356.902344 410.285156 363.484375 407.847656 369.210938 L 392.765625 404.878906 C 389.699219 412.75 380.554688 414.523438 374.84375 409.636719 Z M 358.101562 232.078125 C 353.390625 228.058594 352.84375 220.914062 356.859375 216.203125 C 360.921875 211.492188 368.019531 210.945312 372.730469 214.960938 L 377.8125 219.300781 L 387.136719 197.3125 C 389.554688 191.601562 396.136719 188.894531 401.863281 191.328125 C 407.574219 193.699219 410.285156 200.332031 407.847656 206.058594 L 392.765625 241.722656 C 389.699219 249.597656 380.554688 251.320312 374.84375 246.433594 Z M 358.101562 150.5 C 353.390625 146.484375 352.84375 139.335938 356.859375 134.625 C 360.921875 129.867188 368.019531 129.320312 372.730469 133.382812 L 377.8125 137.722656 L 387.136719 115.738281 C 389.554688 109.976562 396.136719 107.316406 401.863281 109.703125 C 407.574219 112.125 410.285156 118.707031 407.847656 124.480469 L 392.765625 160.148438 C 389.699219 167.96875 380.554688 169.746094 374.84375 164.855469 Z M 358.101562 313.703125 C 353.390625 309.636719 352.84375 302.539062 356.859375 297.796875 C 360.921875 293.085938 368.019531 292.539062 372.730469 296.554688 L 377.8125 300.894531 L 387.136719 278.90625 C 389.554688 273.195312 396.136719 270.484375 401.863281 272.921875 C 407.574219 275.339844 410.285156 281.921875 407.847656 287.648438 L 392.765625 323.316406 C 389.699219 331.1875 380.554688 332.914062 374.84375 328.074219 Z M 319.691406 385.550781 L 316.820312 209.71875 L 316.773438 209.71875 L 316.773438 167.96875 C 271.914062 233.691406 273.011719 320.976562 319.691406 385.550781 Z M 316.773438 131.804688 L 316.773438 112.785156 C 226.503906 200.121094 224.859375 344.804688 314.128906 434.058594 C 402.105469 522.039062 544.765625 522.039062 632.742188 434.058594 C 721.671875 345.125 720.445312 201.039062 630.921875 113.558594 L 630.921875 132.675781 C 647.695312 151.242188 661.230469 172.828125 670.648438 196.554688 C 702.105469 275.839844 682.8125 365.339844 623.417969 424.734375 C 540.605469 507.554688 406.316406 507.554688 323.46875 424.734375 C 243.054688 344.335938 240.507812 215.300781 316.773438 131.804688 Z M 324.402344 76.648438 C 325.546875 75.132812 326.773438 73.683594 328.144531 72.359375 C 332.953125 67.519531 339.035156 63.9375 345.839844 62.210938 L 358.550781 55.035156 L 358.550781 48.679688 C 358.550781 27.320312 375.972656 9.898438 397.332031 9.898438 L 592.125 9.898438 C 613.484375 9.898438 630.902344 27.320312 630.902344 48.679688 L 630.902344 83.296875 C 743.609375 176.164062 752.53125 346.222656 648.695312 450.027344 C 592.722656 506.039062 512.214844 533.074219 430.867188 518.992188 L 414.316406 545.238281 C 407.542969 556.027344 394.152344 560.835938 382.3125 556.15625 L 310.207031 681.082031 C 290.769531 714.730469 249.71875 710.34375 230.28125 685.566406 C 219.585938 671.933594 216.019531 652.964844 227.394531 633.25 L 299.496094 508.375 C 289.480469 500.375 286.640625 486.019531 293.191406 474.773438 L 304.109375 455.804688 C 191.355469 350.238281 201.679688 169.164062 324.402344 76.648438 Z M 381.152344 60.96875 L 550.332031 60.96875 C 571.6875 60.96875 589.109375 78.394531 589.109375 99.75 L 589.109375 424.863281 C 595.5625 419.878906 601.691406 414.523438 607.449219 408.765625 C 608.144531 408.070312 608.820312 407.34375 609.515625 406.667969 L 608.320312 209.671875 L 608.320312 48.679688 C 608.320312 39.804688 600.996094 32.5 592.140625 32.5 L 397.347656 32.5 C 388.476562 32.5 381.167969 39.820312 381.167969 48.679688 L 381.167969 60.96875 Z M 566.527344 439.867188 L 566.527344 99.75 C 566.527344 90.878906 559.203125 83.570312 550.347656 83.570312 C 485.421875 83.570312 420.496094 83.570312 355.550781 83.570312 C 346.679688 83.570312 339.371094 90.894531 339.371094 99.75 L 339.371094 209.71875 L 339.324219 209.71875 L 342.613281 411.878906 C 402.734375 469.273438 493.777344 480.96875 566.527344 439.867188 Z M 630.902344 169.164062 L 631.824219 378.824219 C 673.746094 315.21875 673.34375 232.222656 630.902344 169.164062 Z M 635.566406 582.53125 C 669.585938 582.53125 697.152344 610.101562 697.152344 644.171875 C 697.152344 678.191406 669.585938 705.808594 635.566406 705.808594 C 601.496094 705.808594 573.929688 678.191406 573.929688 644.171875 C 573.929688 610.101562 601.496094 582.53125 635.566406 582.53125 Z M 663.132812 616.554688 C 638.628906 592.003906 596.511719 609.472656 596.511719 644.171875 C 596.511719 678.839844 638.628906 696.292969 663.132812 671.789062 C 678.410156 656.527344 678.410156 631.78125 663.132812 616.554688 Z M 627.789062 530.460938 L 643.019531 530.460938 C 653.714844 530.460938 662.40625 539.1875 662.40625 549.800781 L 662.40625 553.320312 L 671.78125 556.660156 C 674.796875 557.898438 677.8125 559.351562 680.746094 560.917969 C 685.554688 556.109375 689.34375 552.769531 696.925781 552.769531 C 701.765625 552.769531 706.894531 554.691406 710.605469 558.433594 L 721.398438 569.175781 C 728.945312 576.773438 728.945312 589.019531 721.398438 596.617188 L 718.882812 599.085938 C 720.429688 601.972656 721.898438 604.941406 723.171875 608.054688 C 724.445312 611.117188 725.542969 614.230469 726.511719 617.425781 C 733.238281 617.425781 738.300781 617.75 743.707031 623.183594 C 747.222656 626.699219 749.382812 631.507812 749.382812 636.816406 L 749.382812 652.042969 C 749.382812 662.691406 740.65625 671.386719 729.996094 671.386719 L 729.996094 671.335938 L 726.527344 671.335938 C 724.65625 677.691406 722.042969 683.902344 718.898438 689.726562 C 723.703125 694.484375 727.074219 698.324219 727.074219 705.90625 C 727.074219 710.792969 725.15625 715.875 721.367188 719.585938 L 721.414062 719.632812 L 710.621094 730.378906 C 703.074219 737.976562 690.78125 737.976562 683.230469 730.378906 L 680.765625 727.910156 C 674.910156 731.070312 668.777344 733.621094 662.421875 735.507812 C 662.421875 742.28125 662.101562 747.347656 656.746094 752.703125 C 653.230469 756.21875 648.292969 758.414062 643.035156 758.414062 L 627.808594 758.414062 C 617.113281 758.414062 608.417969 749.71875 608.417969 739.023438 L 608.417969 735.507812 C 602.0625 733.636719 595.933594 731.070312 590.125 727.910156 C 585.320312 732.667969 581.574219 736.007812 573.945312 736.007812 L 573.945312 736.054688 C 568.960938 736.054688 564.027344 734.183594 560.234375 730.394531 L 548.621094 718.683594 C 541.847656 710.632812 542.265625 699.339844 549.492188 692.257812 L 549.445312 692.257812 L 551.960938 689.742188 C 548.796875 683.9375 546.25 677.707031 544.363281 671.402344 C 537.585938 671.402344 532.523438 671.128906 527.117188 665.722656 C 523.652344 662.253906 521.441406 657.222656 521.441406 652.042969 L 521.441406 636.816406 C 521.441406 626.121094 530.167969 617.425781 540.828125 617.425781 L 544.296875 617.425781 C 546.21875 611.070312 548.734375 604.941406 551.929688 599.085938 C 547.167969 594.324219 543.78125 590.535156 543.78125 582.902344 L 543.734375 582.902344 C 543.734375 578.015625 545.652344 572.933594 549.445312 569.226562 L 549.394531 569.175781 L 561.105469 557.609375 C 569.15625 550.800781 580.351562 551.207031 587.578125 558.433594 L 590.09375 560.902344 C 595.898438 557.738281 602.078125 555.191406 608.433594 553.304688 L 608.433594 549.785156 L 608.386719 549.785156 C 608.386719 544.527344 610.578125 539.542969 614.097656 536.105469 C 617.597656 532.605469 622.453125 530.460938 627.789062 530.460938 Z M 639.824219 552.996094 L 630.953125 552.996094 L 630.953125 555.738281 L 631 555.738281 C 631 564.515625 625.097656 572.160156 616.644531 574.433594 C 610.515625 576.082031 604.660156 578.5 599.222656 581.613281 C 591.625 586 582.027344 584.777344 575.816406 578.597656 L 573.898438 576.675781 L 567.671875 582.886719 C 571.65625 586.871094 574.300781 589.890625 575.074219 596.019531 C 576.222656 604.519531 571.882812 608.457031 568.445312 616.683594 C 565.058594 624.863281 565.429688 630.71875 558.523438 635.976562 C 553.6875 639.71875 549.652344 639.992188 544.023438 639.992188 L 544.023438 648.769531 C 549.652344 648.769531 553.671875 649.042969 558.523438 652.785156 C 565.574219 658.171875 565.058594 664.125 568.445312 672.078125 C 572.011719 680.355469 576.171875 684.46875 575.074219 692.792969 C 574.300781 698.875 571.640625 701.9375 567.671875 705.875 L 573.929688 712.085938 C 577.867188 708.148438 580.929688 705.503906 587.011719 704.679688 C 595.5625 703.582031 599.496094 707.921875 607.722656 711.3125 C 615.871094 714.699219 621.710938 714.375 627.015625 721.28125 C 630.726562 726.121094 631 730.152344 631 735.78125 L 639.824219 735.78125 C 639.824219 730.152344 640.097656 726.136719 643.808594 721.28125 C 649.117188 714.375 654.972656 714.699219 663.148438 711.3125 C 671.375 707.921875 675.261719 703.582031 683.8125 704.679688 C 689.894531 705.503906 692.960938 708.148438 696.945312 712.085938 L 703.152344 705.875 C 699.167969 701.890625 696.523438 698.875 695.75 692.792969 C 694.605469 684.242188 698.945312 680.304688 702.378906 672.078125 C 705.765625 663.933594 705.394531 658.09375 712.347656 652.785156 C 715.640625 650.222656 719.703125 648.769531 724.089844 648.769531 L 724.089844 648.816406 L 726.785156 648.816406 L 726.785156 639.992188 C 721.203125 639.992188 717.1875 639.71875 712.332031 635.976562 C 705.429688 630.71875 705.75 624.863281 702.363281 616.683594 C 698.847656 608.457031 694.636719 604.375 695.734375 596.019531 C 696.507812 589.890625 699.167969 586.871094 703.136719 582.886719 L 696.925781 576.675781 C 692.941406 580.660156 689.925781 583.257812 683.796875 584.082031 C 675.246094 585.179688 671.359375 580.839844 663.132812 577.453125 C 654.988281 574.0625 649.148438 574.433594 643.792969 567.484375 C 640.097656 562.644531 639.824219 558.625 639.824219 552.996094 Z M 692.71875 418.152344 C 692.71875 411.894531 697.796875 406.863281 704.007812 406.863281 C 710.234375 406.863281 715.300781 411.894531 715.300781 418.152344 L 715.300781 451.949219 C 715.300781 458.160156 710.21875 463.242188 704.007812 463.242188 C 697.796875 463.242188 692.71875 458.160156 692.71875 451.949219 Z M 692.71875 499.8125 C 692.71875 493.550781 697.796875 488.519531 704.007812 488.519531 C 710.234375 488.519531 715.300781 493.550781 715.300781 499.8125 L 715.300781 531.6875 C 715.300781 537.898438 710.21875 542.980469 704.007812 542.980469 C 697.796875 542.980469 692.71875 537.898438 692.71875 531.6875 Z M 505.519531 686.515625 C 511.746094 686.515625 516.8125 691.550781 516.8125 697.808594 C 516.8125 704.019531 511.730469 709.101562 505.519531 709.101562 L 450.835938 709.101562 C 444.609375 709.101562 439.542969 704.019531 439.542969 697.808594 C 439.542969 691.550781 444.625 686.515625 450.835938 686.515625 Z M 396.605469 685.566406 C 402.832031 685.566406 407.847656 690.597656 407.847656 696.855469 C 407.847656 703.082031 402.816406 708.148438 396.605469 708.148438 L 341.503906 708.148438 C 335.277344 708.148438 330.210938 703.066406 330.210938 696.855469 C 330.210938 690.597656 335.292969 685.566406 341.503906 685.566406 Z M 202.921875 686.195312 C 209.179688 686.195312 214.214844 691.273438 214.214844 697.484375 C 214.214844 703.746094 209.179688 708.777344 202.921875 708.777344 L 159.257812 708.777344 C 152.996094 708.777344 147.964844 703.746094 147.964844 697.484375 C 147.964844 691.273438 152.996094 686.195312 159.257812 686.195312 Z M 143.933594 304.007812 C 143.933594 310.265625 138.851562 315.300781 132.640625 315.300781 C 126.382812 315.300781 121.347656 310.265625 121.347656 304.007812 L 121.347656 251.789062 C 121.347656 245.578125 126.382812 240.496094 132.640625 240.496094 C 138.867188 240.496094 143.933594 245.578125 143.933594 251.789062 Z M 137.253906 224.351562 C 131.027344 224.351562 125.960938 219.316406 125.960938 213.058594 C 125.960938 206.847656 131.042969 201.765625 137.253906 201.765625 L 199.210938 201.765625 C 205.472656 201.765625 210.503906 206.847656 210.503906 213.058594 C 210.503906 219.316406 205.472656 224.351562 199.210938 224.351562 Z M 143.933594 654.09375 C 143.933594 660.320312 138.851562 665.382812 132.640625 665.382812 C 126.382812 665.382812 121.347656 660.304688 121.347656 654.09375 L 121.347656 600.503906 C 121.347656 594.277344 126.382812 589.210938 132.640625 589.210938 C 138.867188 589.210938 143.933594 594.292969 143.933594 600.503906 Z M 129.527344 381.019531 C 163.546875 381.019531 191.164062 408.585938 191.164062 442.609375 C 191.164062 476.679688 163.546875 504.246094 129.527344 504.246094 C 95.507812 504.246094 67.941406 476.679688 67.941406 442.609375 C 67.941406 408.585938 95.507812 381.019531 129.527344 381.019531 Z M 157.144531 415.039062 C 132.640625 390.488281 90.523438 407.957031 90.523438 442.609375 C 90.523438 477.308594 132.640625 494.730469 157.144531 470.226562 C 172.371094 454.996094 172.371094 430.269531 157.144531 415.039062 Z M 121.800781 328.929688 L 137.027344 328.929688 C 147.675781 328.929688 156.371094 337.65625 156.371094 348.273438 L 156.371094 351.789062 C 162.726562 353.660156 168.953125 356.273438 174.710938 359.386719 C 179.515625 354.578125 183.308594 351.238281 190.890625 351.238281 C 195.824219 351.238281 200.808594 353.113281 204.601562 356.902344 L 215.34375 367.644531 C 222.890625 375.242188 222.890625 387.488281 215.34375 395.039062 L 212.875 397.554688 C 214.425781 400.441406 215.84375 403.410156 217.132812 406.523438 C 218.40625 409.585938 219.503906 412.699219 220.472656 415.894531 C 227.199219 415.894531 232.3125 416.167969 237.667969 421.558594 C 241.183594 425.027344 243.347656 429.882812 243.347656 435.238281 L 243.347656 450.464844 C 243.347656 461.160156 234.621094 469.855469 224.003906 469.855469 L 224.003906 469.804688 L 220.488281 469.804688 C 218.617188 476.164062 216.054688 482.339844 212.890625 488.195312 C 217.699219 493.003906 221.039062 496.792969 221.039062 504.375 C 221.039062 509.214844 219.117188 514.34375 215.375 518.054688 L 204.632812 528.847656 C 197.035156 536.398438 184.792969 536.398438 177.242188 528.847656 L 174.726562 526.332031 C 168.917969 529.492188 162.691406 532.042969 156.386719 533.929688 C 156.386719 540.703125 156.109375 545.769531 150.722656 551.171875 C 147.207031 554.640625 142.398438 556.835938 137.042969 556.835938 L 121.800781 556.835938 C 111.15625 556.835938 102.410156 548.058594 102.410156 537.445312 L 102.410156 533.929688 L 93.039062 530.636719 C 90.023438 529.363281 87.007812 527.945312 84.070312 526.347656 C 79.3125 531.15625 75.523438 534.527344 67.890625 534.527344 C 63.054688 534.527344 57.921875 532.605469 54.214844 528.816406 L 54.214844 528.863281 L 42.597656 517.152344 C 35.824219 509.101562 36.242188 497.90625 43.421875 490.679688 L 45.9375 488.210938 C 42.777344 482.40625 40.226562 476.179688 38.308594 469.871094 C 31.582031 469.871094 26.515625 469.546875 21.113281 464.191406 C 17.644531 460.675781 15.433594 455.820312 15.433594 450.480469 L 15.433594 435.253906 C 15.433594 424.605469 24.160156 415.910156 34.824219 415.910156 L 38.292969 415.910156 C 40.210938 409.507812 42.726562 403.378906 45.921875 397.570312 C 41.113281 392.761719 37.742188 388.972656 37.742188 381.390625 C 37.742188 376.503906 39.664062 371.421875 43.453125 367.710938 L 43.40625 367.660156 L 54.195312 356.917969 C 61.746094 349.367188 74.039062 349.367188 81.585938 356.917969 L 84.054688 359.386719 C 86.941406 357.839844 89.910156 356.417969 93.023438 355.128906 C 96.136719 353.855469 99.25 352.707031 102.445312 351.789062 L 102.445312 348.273438 L 102.394531 348.273438 C 102.394531 342.964844 104.589844 338.171875 108.105469 334.59375 L 108.089844 334.59375 C 111.605469 331.074219 116.445312 328.929688 121.800781 328.929688 Z M 133.785156 351.53125 L 124.960938 351.53125 L 124.960938 354.222656 L 125.011719 354.222656 C 125.011719 363 119.105469 370.644531 110.65625 372.921875 C 107.542969 373.742188 104.574219 374.742188 101.6875 375.9375 C 93.460938 379.40625 89.378906 383.664062 81.023438 382.566406 C 74.894531 381.746094 71.875 379.132812 67.890625 375.164062 L 61.664062 381.375 L 63.585938 383.292969 C 69.8125 389.550781 71.039062 399.070312 66.648438 406.667969 C 63.488281 412.105469 61.070312 417.960938 59.421875 424.089844 C 57.179688 432.589844 49.550781 438.445312 40.726562 438.445312 L 38.035156 438.445312 L 38.035156 447.269531 C 43.664062 447.269531 47.679688 447.546875 52.535156 451.253906 C 59.585938 456.691406 59.070312 462.59375 62.457031 470.597656 C 66.019531 478.871094 70.183594 482.9375 69.085938 491.261719 C 68.3125 497.390625 65.648438 500.40625 61.679688 504.390625 L 67.90625 510.601562 C 71.890625 506.617188 74.910156 503.972656 81.039062 503.199219 C 89.585938 502.054688 93.476562 506.394531 101.703125 509.828125 C 109.847656 513.167969 115.6875 512.84375 121.042969 519.75 C 124.753906 524.589844 125.027344 528.621094 125.027344 534.25 L 133.851562 534.25 C 133.851562 528.621094 134.078125 524.605469 137.835938 519.75 C 143.222656 512.699219 149.175781 513.214844 157.128906 509.828125 C 165.402344 506.261719 169.515625 502.101562 177.789062 503.199219 C 183.921875 503.972656 186.9375 506.632812 190.921875 510.601562 L 197.148438 504.390625 L 195.226562 502.472656 L 195.277344 502.425781 C 189.050781 496.214844 187.777344 486.695312 192.210938 479.050781 C 195.324219 473.660156 197.746094 467.757812 199.390625 461.628906 C 201.679688 453.175781 209.308594 447.269531 218.085938 447.269531 L 218.085938 447.320312 L 220.78125 447.320312 L 220.78125 438.445312 C 215.199219 438.445312 211.179688 438.222656 206.324219 434.460938 C 199.421875 429.15625 199.746094 423.300781 196.355469 415.167969 C 192.890625 406.941406 188.628906 402.859375 189.726562 394.457031 C 190.550781 388.375 193.164062 385.359375 197.132812 381.375 L 190.90625 375.164062 C 186.921875 379.148438 183.90625 381.746094 177.773438 382.566406 C 169.273438 383.664062 165.339844 379.375 157.109375 375.9375 C 148.964844 372.550781 143.125 372.871094 137.820312 365.96875 C 134.058594 361.128906 133.785156 357.097656 133.785156 351.53125 Z M 362.632812 545.125 L 318.871094 519.832031 L 246.894531 644.527344 C 230.167969 673.464844 273.960938 698.710938 290.65625 669.773438 Z M 321.582031 470.644531 L 312.660156 486.050781 C 311.691406 487.695312 312.289062 490.035156 314.03125 491.035156 L 390.023438 534.929688 L 390.023438 534.976562 C 391.847656 535.976562 394.136719 535.027344 395.28125 533.234375 L 407.542969 513.75 C 375.894531 505.019531 346.761719 490.210938 321.582031 470.644531 Z M 321.582031 470.644531 " fill-opacity="1" fill-rule="nonzero"/></g><path fill="#edf8fe" d="M 682.070312 590.035156 C 685.3125 590.035156 687.976562 592.679688 687.976562 595.988281 C 687.976562 599.230469 685.328125 601.890625 682.070312 601.890625 C 678.78125 601.890625 676.117188 599.246094 676.117188 595.988281 C 676.117188 592.679688 678.78125 590.035156 682.070312 590.035156 Z M 682.070312 590.035156 " fill-opacity="1" fill-rule="evenodd"/><path fill="#edf8fe" d="M 176.03125 388.519531 C 179.324219 388.519531 181.984375 391.164062 181.984375 394.425781 C 181.984375 397.714844 179.339844 400.375 176.03125 400.375 C 172.789062 400.375 170.128906 397.730469 170.128906 394.425781 C 170.128906 391.164062 172.789062 388.519531 176.03125 388.519531 Z M 176.03125 388.519531 " fill-opacity="1" fill-rule="evenodd"/></svg>