<svg xmlns="http://www.w3.org/2000/svg" xmlns:xlink="http://www.w3.org/1999/xlink" width="1024" zoomAndPan="magnify" viewBox="0 0 768 767.999994" height="1024" preserveAspectRatio="xMidYMid meet" version="1.0"><defs><clipPath id="24b235a9c0"><path d="M 0 56.640625 L 768 56.640625 L 768 711.390625 L 0 711.390625 Z M 0 56.640625 " clip-rule="nonzero"/></clipPath><clipPath id="575846db59"><path d="M 0 56.640625 L 768 56.640625 L 768 134 L 0 134 Z M 0 56.640625 " clip-rule="nonzero"/></clipPath></defs><rect x="-76.8" width="921.6" fill="#ffffff" y="-76.799999" height="921.599993" fill-opacity="1"/><rect x="-76.8" width="921.6" fill="#ffffff" y="-76.799999" height="921.599993" fill-opacity="1"/><path fill="#ffffff" d="M 743.625 710.4375 L 24.5625 710.4375 C 11.8125 710.4375 1.492188 700.097656 1.492188 687.363281 L 1.492188 80.664062 C 1.492188 67.914062 11.828125 57.59375 24.5625 57.59375 L 743.625 57.59375 C 756.375 57.59375 766.695312 67.933594 766.695312 80.664062 L 766.695312 687.363281 C 766.695312 700.097656 756.355469 710.4375 743.625 710.4375 Z M 743.625 710.4375 " fill-opacity="1" fill-rule="nonzero"/><g clip-path="url(#24b235a9c0)"><path fill="#000000" d="M 743.625 711.371094 L 24.5625 711.371094 C 11.324219 711.371094 0.554688 700.601562 0.554688 687.363281 L 0.554688 80.664062 C 0.554688 67.429688 11.324219 56.660156 24.5625 56.660156 L 743.625 56.660156 C 756.863281 56.660156 767.628906 67.429688 767.628906 80.664062 L 767.628906 687.363281 C 767.628906 700.601562 756.863281 711.371094 743.625 711.371094 Z M 24.5625 58.527344 C 12.351562 58.527344 2.425781 68.457031 2.425781 80.664062 L 2.425781 687.363281 C 2.425781 699.574219 12.351562 709.5 24.5625 709.5 L 743.625 709.5 C 755.832031 709.5 765.761719 699.574219 765.761719 687.363281 L 765.761719 80.664062 C 765.761719 68.457031 755.832031 58.527344 743.625 58.527344 Z M 24.5625 58.527344 " fill-opacity="1" fill-rule="nonzero"/></g><path fill="#ffffff" d="M 766.695312 81.414062 L 766.695312 132.453125 L 1.492188 132.453125 L 1.492188 81.414062 C 1.492188 68.25 12.148438 57.59375 25.289062 57.59375 L 742.898438 57.59375 C 756.039062 57.59375 766.695312 68.25 766.695312 81.414062 Z M 766.695312 81.414062 " fill-opacity="1" fill-rule="nonzero"/><g clip-path="url(#575846db59)"><path fill="#000000" d="M 767.628906 133.390625 L 0.554688 133.390625 L 0.554688 81.414062 C 0.554688 67.765625 11.660156 56.660156 25.289062 56.660156 L 742.898438 56.660156 C 756.527344 56.660156 767.628906 67.765625 767.628906 81.414062 Z M 2.425781 131.519531 L 765.761719 131.519531 L 765.761719 81.414062 C 765.761719 68.792969 755.496094 58.527344 742.898438 58.527344 L 25.289062 58.527344 C 12.691406 58.527344 2.425781 68.792969 2.425781 81.414062 Z M 2.425781 131.519531 " fill-opacity="1" fill-rule="nonzero"/></g><path fill="#fe7be5" d="M 57.277344 95.023438 C 57.277344 95.601562 57.222656 96.175781 57.109375 96.742188 C 56.996094 97.308594 56.828125 97.859375 56.609375 98.394531 C 56.386719 98.929688 56.117188 99.433594 55.792969 99.917969 C 55.472656 100.398438 55.109375 100.839844 54.699219 101.25 C 54.289062 101.660156 53.84375 102.023438 53.363281 102.347656 C 52.882812 102.667969 52.375 102.9375 51.84375 103.160156 C 51.308594 103.378906 50.757812 103.546875 50.191406 103.660156 C 49.625 103.773438 49.050781 103.828125 48.472656 103.828125 C 47.894531 103.828125 47.320312 103.773438 46.753906 103.660156 C 46.1875 103.546875 45.636719 103.378906 45.101562 103.160156 C 44.570312 102.9375 44.0625 102.667969 43.582031 102.347656 C 43.101562 102.023438 42.65625 101.660156 42.246094 101.25 C 41.835938 100.839844 41.472656 100.398438 41.152344 99.917969 C 40.828125 99.433594 40.558594 98.929688 40.335938 98.394531 C 40.117188 97.859375 39.949219 97.308594 39.835938 96.742188 C 39.722656 96.175781 39.667969 95.601562 39.667969 95.023438 C 39.667969 94.445312 39.722656 93.871094 39.835938 93.304688 C 39.949219 92.738281 40.117188 92.1875 40.335938 91.652344 C 40.558594 91.121094 40.828125 90.613281 41.152344 90.132812 C 41.472656 89.652344 41.835938 89.207031 42.246094 88.796875 C 42.65625 88.386719 43.101562 88.023438 43.582031 87.703125 C 44.0625 87.378906 44.570312 87.109375 45.101562 86.886719 C 45.636719 86.667969 46.1875 86.5 46.753906 86.386719 C 47.320312 86.273438 47.894531 86.21875 48.472656 86.21875 C 49.050781 86.21875 49.625 86.273438 50.191406 86.386719 C 50.757812 86.5 51.308594 86.667969 51.84375 86.886719 C 52.375 87.109375 52.882812 87.378906 53.363281 87.703125 C 53.84375 88.023438 54.289062 88.386719 54.699219 88.796875 C 55.109375 89.207031 55.472656 89.652344 55.792969 90.132812 C 56.117188 90.613281 56.386719 91.121094 56.609375 91.652344 C 56.828125 92.1875 56.996094 92.738281 57.109375 93.304688 C 57.222656 93.871094 57.277344 94.445312 57.277344 95.023438 Z M 57.277344 95.023438 " fill-opacity="1" fill-rule="nonzero"/><path fill="#000000" d="M 48.472656 104.765625 C 43.105469 104.765625 38.730469 100.390625 38.730469 95.023438 C 38.730469 89.65625 43.105469 85.28125 48.472656 85.28125 C 53.839844 85.28125 58.214844 89.65625 58.214844 95.023438 C 58.214844 100.390625 53.839844 104.765625 48.472656 104.765625 Z M 48.472656 87.152344 C 44.136719 87.152344 40.601562 90.6875 40.601562 95.023438 C 40.601562 99.363281 44.136719 102.894531 48.472656 102.894531 C 52.808594 102.894531 56.34375 99.363281 56.34375 95.023438 C 56.34375 90.6875 52.808594 87.152344 48.472656 87.152344 Z M 48.472656 87.152344 " fill-opacity="1" fill-rule="nonzero"/><path fill="#fe7be5" d="M 96.371094 95.023438 C 96.371094 95.601562 96.3125 96.175781 96.203125 96.742188 C 96.089844 97.308594 95.921875 97.859375 95.699219 98.394531 C 95.480469 98.929688 95.207031 99.433594 94.886719 99.917969 C 94.566406 100.398438 94.199219 100.839844 93.792969 101.25 C 93.382812 101.660156 92.9375 102.023438 92.457031 102.347656 C 91.976562 102.667969 91.46875 102.9375 90.933594 103.160156 C 90.402344 103.378906 89.851562 103.546875 89.28125 103.660156 C 88.714844 103.773438 88.144531 103.828125 87.566406 103.828125 C 86.988281 103.828125 86.414062 103.773438 85.847656 103.660156 C 85.28125 103.546875 84.730469 103.378906 84.195312 103.160156 C 83.660156 102.9375 83.152344 102.667969 82.671875 102.347656 C 82.191406 102.023438 81.746094 101.660156 81.339844 101.25 C 80.929688 100.839844 80.566406 100.398438 80.242188 99.917969 C 79.921875 99.433594 79.652344 98.929688 79.429688 98.394531 C 79.207031 97.859375 79.042969 97.308594 78.929688 96.742188 C 78.816406 96.175781 78.757812 95.601562 78.757812 95.023438 C 78.757812 94.445312 78.816406 93.871094 78.929688 93.304688 C 79.042969 92.738281 79.207031 92.1875 79.429688 91.652344 C 79.652344 91.121094 79.921875 90.613281 80.242188 90.132812 C 80.566406 89.652344 80.929688 89.207031 81.339844 88.796875 C 81.746094 88.386719 82.191406 88.023438 82.671875 87.703125 C 83.152344 87.378906 83.660156 87.109375 84.195312 86.886719 C 84.730469 86.667969 85.28125 86.5 85.847656 86.386719 C 86.414062 86.273438 86.988281 86.21875 87.566406 86.21875 C 88.144531 86.21875 88.714844 86.273438 89.28125 86.386719 C 89.851562 86.5 90.402344 86.667969 90.933594 86.886719 C 91.46875 87.109375 91.976562 87.378906 92.457031 87.703125 C 92.9375 88.023438 93.382812 88.386719 93.792969 88.796875 C 94.199219 89.207031 94.566406 89.652344 94.886719 90.132812 C 95.207031 90.613281 95.480469 91.121094 95.699219 91.652344 C 95.921875 92.1875 96.089844 92.738281 96.203125 93.304688 C 96.3125 93.871094 96.371094 94.445312 96.371094 95.023438 Z M 96.371094 95.023438 " fill-opacity="1" fill-rule="nonzero"/><path fill="#000000" d="M 87.566406 104.765625 C 82.199219 104.765625 77.824219 100.390625 77.824219 95.023438 C 77.824219 89.65625 82.199219 85.28125 87.566406 85.28125 C 92.929688 85.28125 97.304688 89.65625 97.304688 95.023438 C 97.304688 100.390625 92.929688 104.765625 87.566406 104.765625 Z M 87.566406 87.152344 C 83.226562 87.152344 79.695312 90.6875 79.695312 95.023438 C 79.695312 99.363281 83.226562 102.894531 87.566406 102.894531 C 91.902344 102.894531 95.4375 99.363281 95.4375 95.023438 C 95.4375 90.6875 91.902344 87.152344 87.566406 87.152344 Z M 87.566406 87.152344 " fill-opacity="1" fill-rule="nonzero"/><path fill="#fe7be5" d="M 135.460938 95.023438 C 135.460938 95.601562 135.40625 96.175781 135.292969 96.742188 C 135.179688 97.308594 135.011719 97.859375 134.792969 98.394531 C 134.570312 98.929688 134.300781 99.433594 133.980469 99.917969 C 133.65625 100.398438 133.292969 100.839844 132.882812 101.25 C 132.476562 101.660156 132.03125 102.023438 131.550781 102.347656 C 131.070312 102.667969 130.5625 102.9375 130.027344 103.160156 C 129.492188 103.378906 128.941406 103.546875 128.375 103.660156 C 127.808594 103.773438 127.234375 103.828125 126.65625 103.828125 C 126.078125 103.828125 125.507812 103.773438 124.9375 103.660156 C 124.371094 103.546875 123.820312 103.378906 123.289062 103.160156 C 122.753906 102.9375 122.246094 102.667969 121.765625 102.347656 C 121.285156 102.023438 120.839844 101.660156 120.429688 101.25 C 120.023438 100.839844 119.65625 100.398438 119.335938 99.917969 C 119.015625 99.433594 118.742188 98.929688 118.523438 98.394531 C 118.300781 97.859375 118.132812 97.308594 118.019531 96.742188 C 117.90625 96.175781 117.851562 95.601562 117.851562 95.023438 C 117.851562 94.445312 117.90625 93.871094 118.019531 93.304688 C 118.132812 92.738281 118.300781 92.1875 118.523438 91.652344 C 118.742188 91.121094 119.015625 90.613281 119.335938 90.132812 C 119.65625 89.652344 120.023438 89.207031 120.429688 88.796875 C 120.839844 88.386719 121.285156 88.023438 121.765625 87.703125 C 122.246094 87.378906 122.753906 87.109375 123.289062 86.886719 C 123.820312 86.667969 124.371094 86.5 124.9375 86.386719 C 125.507812 86.273438 126.078125 86.21875 126.65625 86.21875 C 127.234375 86.21875 127.808594 86.273438 128.375 86.386719 C 128.941406 86.5 129.492188 86.667969 130.027344 86.886719 C 130.5625 87.109375 131.070312 87.378906 131.550781 87.703125 C 132.03125 88.023438 132.476562 88.386719 132.882812 88.796875 C 133.292969 89.207031 133.65625 89.652344 133.980469 90.132812 C 134.300781 90.613281 134.570312 91.121094 134.792969 91.652344 C 135.011719 92.1875 135.179688 92.738281 135.292969 93.304688 C 135.40625 93.871094 135.460938 94.445312 135.460938 95.023438 Z M 135.460938 95.023438 " fill-opacity="1" fill-rule="nonzero"/><path fill="#000000" d="M 126.65625 104.765625 C 121.292969 104.765625 116.917969 100.390625 116.917969 95.023438 C 116.917969 89.65625 121.292969 85.28125 126.65625 85.28125 C 132.023438 85.28125 136.398438 89.65625 136.398438 95.023438 C 136.398438 100.390625 132.023438 104.765625 126.65625 104.765625 Z M 126.65625 87.152344 C 122.320312 87.152344 118.785156 90.6875 118.785156 95.023438 C 118.785156 99.363281 122.320312 102.894531 126.65625 102.894531 C 130.996094 102.894531 134.527344 99.363281 134.527344 95.023438 C 134.527344 90.6875 130.996094 87.152344 126.65625 87.152344 Z M 126.65625 87.152344 " fill-opacity="1" fill-rule="nonzero"/><path fill="#ffffff" d="M 39.667969 172.203125 L 307.722656 172.203125 L 307.722656 440.273438 L 39.667969 440.273438 Z M 39.667969 172.203125 " fill-opacity="1" fill-rule="nonzero"/><path fill="#000000" d="M 308.65625 441.207031 L 38.730469 441.207031 L 38.730469 171.269531 L 308.65625 171.269531 Z M 40.601562 439.335938 L 306.789062 439.335938 L 306.789062 173.136719 L 40.601562 173.136719 Z M 40.601562 439.335938 " fill-opacity="1" fill-rule="nonzero"/><path fill="#504099" d="M 176.6875 440.273438 L 233.035156 337.011719 L 289.382812 440.273438 Z M 176.6875 440.273438 " fill-opacity="1" fill-rule="nonzero"/><path fill="#000000" d="M 290.953125 441.207031 L 175.097656 441.207031 L 233.015625 335.050781 Z M 178.257812 439.335938 L 287.8125 439.335938 L 233.035156 338.957031 Z M 178.257812 439.335938 " fill-opacity="1" fill-rule="nonzero"/><path fill="#974ec3" d="M 58.007812 440.273438 L 150.886719 270.042969 L 243.785156 440.273438 Z M 58.007812 440.273438 " fill-opacity="1" fill-rule="nonzero"/><path fill="#000000" d="M 245.355469 441.207031 L 56.4375 441.207031 L 150.90625 268.097656 Z M 59.578125 439.335938 L 242.214844 439.335938 L 150.90625 272.003906 Z M 59.578125 439.335938 " fill-opacity="1" fill-rule="nonzero"/><path fill="#fe7be5" d="M 240.382812 283.054688 C 240.382812 283.535156 240.335938 284.015625 240.242188 284.488281 C 240.144531 284.960938 240.007812 285.421875 239.820312 285.867188 C 239.636719 286.3125 239.410156 286.734375 239.144531 287.136719 C 238.875 287.539062 238.570312 287.910156 238.230469 288.25 C 237.886719 288.589844 237.515625 288.894531 237.117188 289.164062 C 236.714844 289.429688 236.292969 289.65625 235.847656 289.84375 C 235.398438 290.027344 234.941406 290.167969 234.46875 290.261719 C 233.996094 290.355469 233.515625 290.402344 233.035156 290.402344 C 232.550781 290.402344 232.074219 290.355469 231.601562 290.261719 C 231.128906 290.167969 230.667969 290.027344 230.222656 289.84375 C 229.777344 289.65625 229.351562 289.429688 228.953125 289.164062 C 228.550781 288.894531 228.179688 288.589844 227.839844 288.25 C 227.496094 287.910156 227.191406 287.539062 226.925781 287.136719 C 226.65625 286.734375 226.429688 286.3125 226.246094 285.867188 C 226.0625 285.421875 225.921875 284.960938 225.828125 284.488281 C 225.734375 284.015625 225.6875 283.535156 225.6875 283.054688 C 225.6875 282.570312 225.734375 282.09375 225.828125 281.621094 C 225.921875 281.148438 226.0625 280.6875 226.246094 280.242188 C 226.429688 279.796875 226.65625 279.375 226.925781 278.972656 C 227.191406 278.570312 227.496094 278.199219 227.839844 277.859375 C 228.179688 277.515625 228.550781 277.210938 228.953125 276.945312 C 229.351562 276.675781 229.777344 276.449219 230.222656 276.265625 C 230.667969 276.082031 231.128906 275.941406 231.601562 275.847656 C 232.074219 275.753906 232.550781 275.707031 233.035156 275.707031 C 233.515625 275.707031 233.996094 275.753906 234.46875 275.847656 C 234.941406 275.941406 235.398438 276.082031 235.847656 276.265625 C 236.292969 276.449219 236.714844 276.675781 237.117188 276.945312 C 237.515625 277.210938 237.886719 277.515625 238.230469 277.859375 C 238.570312 278.199219 238.875 278.570312 239.144531 278.972656 C 239.410156 279.375 239.636719 279.796875 239.820312 280.242188 C 240.007812 280.6875 240.144531 281.148438 240.242188 281.621094 C 240.335938 282.09375 240.382812 282.570312 240.382812 283.054688 Z M 240.382812 283.054688 " fill-opacity="1" fill-rule="nonzero"/><path fill="#000000" d="M 233.035156 291.335938 C 228.472656 291.335938 224.753906 287.617188 224.753906 283.054688 C 224.753906 278.492188 228.472656 274.773438 233.035156 274.773438 C 237.597656 274.773438 241.316406 278.492188 241.316406 283.054688 C 241.316406 287.617188 237.597656 291.335938 233.035156 291.335938 Z M 233.035156 276.640625 C 229.5 276.640625 226.621094 279.519531 226.621094 283.054688 C 226.621094 286.585938 229.5 289.46875 233.035156 289.46875 C 236.566406 289.46875 239.445312 286.585938 239.445312 283.054688 C 239.445312 279.519531 236.566406 276.640625 233.035156 276.640625 Z M 233.035156 276.640625 " fill-opacity="1" fill-rule="nonzero"/><path fill="#fe7be5" d="M 384.09375 172.203125 L 729.304688 172.203125 L 729.304688 280.101562 L 384.09375 280.101562 Z M 384.09375 172.203125 " fill-opacity="1" fill-rule="nonzero"/><path fill="#000000" d="M 730.238281 281.015625 L 383.160156 281.015625 L 383.160156 171.25 L 730.238281 171.25 Z M 385.027344 279.148438 L 728.371094 279.148438 L 728.371094 173.117188 L 385.027344 173.117188 Z M 385.027344 279.148438 " fill-opacity="1" fill-rule="nonzero"/><path fill="#504099" d="M 384.09375 294.140625 L 450.164062 294.140625 L 450.164062 320.746094 L 384.09375 320.746094 Z M 384.09375 294.140625 " fill-opacity="1" fill-rule="nonzero"/><path fill="#000000" d="M 451.097656 321.679688 L 383.160156 321.679688 L 383.160156 293.207031 L 451.097656 293.207031 Z M 385.027344 319.8125 L 449.226562 319.8125 L 449.226562 295.074219 L 385.027344 295.074219 Z M 385.027344 319.8125 " fill-opacity="1" fill-rule="nonzero"/><path fill="#974ec3" d="M 463.210938 294.140625 L 729.304688 294.140625 L 729.304688 320.746094 L 463.210938 320.746094 Z M 463.210938 294.140625 " fill-opacity="1" fill-rule="nonzero"/><path fill="#000000" d="M 730.238281 321.679688 L 462.277344 321.679688 L 462.277344 293.207031 L 730.238281 293.207031 Z M 464.148438 319.8125 L 728.371094 319.8125 L 728.371094 295.074219 L 464.148438 295.074219 Z M 464.148438 319.8125 " fill-opacity="1" fill-rule="nonzero"/><path fill="#974ec3" d="M 384.09375 334.804688 L 569.796875 334.804688 L 569.796875 361.410156 L 384.09375 361.410156 Z M 384.09375 334.804688 " fill-opacity="1" fill-rule="nonzero"/><path fill="#000000" d="M 570.730469 362.347656 L 383.160156 362.347656 L 383.160156 333.871094 L 570.730469 333.871094 Z M 385.027344 360.476562 L 568.859375 360.476562 L 568.859375 335.742188 L 385.027344 335.742188 Z M 385.027344 360.476562 " fill-opacity="1" fill-rule="nonzero"/><path fill="#504099" d="M 584.734375 334.804688 L 729.304688 334.804688 L 729.304688 361.410156 L 584.734375 361.410156 Z M 584.734375 334.804688 " fill-opacity="1" fill-rule="nonzero"/><path fill="#000000" d="M 730.238281 362.347656 L 583.796875 362.347656 L 583.796875 333.871094 L 730.238281 333.871094 Z M 585.667969 360.476562 L 728.371094 360.476562 L 728.371094 335.742188 L 585.667969 335.742188 Z M 585.667969 360.476562 " fill-opacity="1" fill-rule="nonzero"/><path fill="#504099" d="M 384.09375 375.472656 L 729.304688 375.472656 L 729.304688 402.074219 L 384.09375 402.074219 Z M 384.09375 375.472656 " fill-opacity="1" fill-rule="nonzero"/><path fill="#000000" d="M 730.238281 403.011719 L 383.160156 403.011719 L 383.160156 374.535156 L 730.238281 374.535156 Z M 385.027344 401.140625 L 728.371094 401.140625 L 728.371094 376.40625 L 385.027344 376.40625 Z M 385.027344 401.140625 " fill-opacity="1" fill-rule="nonzero"/><path fill="#fe7be5" d="M 39.667969 490.679688 L 371.492188 490.679688 L 371.492188 608.277344 L 39.667969 608.277344 Z M 39.667969 490.679688 " fill-opacity="1" fill-rule="nonzero"/><path fill="#000000" d="M 372.410156 609.234375 L 38.730469 609.234375 L 38.730469 489.761719 L 372.410156 489.761719 Z M 40.601562 607.363281 L 370.539062 607.363281 L 370.539062 491.632812 L 40.601562 491.632812 Z M 40.601562 607.363281 " fill-opacity="1" fill-rule="nonzero"/><path fill="#504099" d="M 39.667969 623.535156 L 371.492188 623.535156 L 371.492188 639.800781 L 39.667969 639.800781 Z M 39.667969 623.535156 " fill-opacity="1" fill-rule="nonzero"/><path fill="#000000" d="M 372.410156 640.734375 L 38.730469 640.734375 L 38.730469 622.601562 L 372.410156 622.601562 Z M 40.601562 638.867188 L 370.539062 638.867188 L 370.539062 624.46875 L 40.601562 624.46875 Z M 40.601562 638.867188 " fill-opacity="1" fill-rule="nonzero"/><path fill="#fe7be5" d="M 39.667969 655.039062 L 157.710938 655.039062 L 157.710938 671.304688 L 39.667969 671.304688 Z M 39.667969 655.039062 " fill-opacity="1" fill-rule="nonzero"/><path fill="#000000" d="M 158.644531 672.238281 L 38.730469 672.238281 L 38.730469 654.105469 L 158.644531 654.105469 Z M 40.601562 670.371094 L 156.777344 670.371094 L 156.777344 655.972656 L 40.601562 655.972656 Z M 40.601562 670.371094 " fill-opacity="1" fill-rule="nonzero"/><path fill="#504099" d="M 173.695312 655.039062 L 371.472656 655.039062 L 371.472656 671.304688 L 173.695312 671.304688 Z M 173.695312 655.039062 " fill-opacity="1" fill-rule="nonzero"/><path fill="#000000" d="M 372.410156 672.238281 L 172.761719 672.238281 L 172.761719 654.105469 L 372.410156 654.105469 Z M 174.628906 670.371094 L 370.539062 670.371094 L 370.539062 655.972656 L 174.628906 655.972656 Z M 174.628906 670.371094 " fill-opacity="1" fill-rule="nonzero"/><path fill="#974ec3" d="M 397.480469 623.535156 L 729.304688 623.535156 L 729.304688 639.800781 L 397.480469 639.800781 Z M 397.480469 623.535156 " fill-opacity="1" fill-rule="nonzero"/><path fill="#000000" d="M 730.238281 640.734375 L 396.5625 640.734375 L 396.5625 622.601562 L 730.257812 622.601562 L 730.257812 640.734375 Z M 398.433594 638.867188 L 728.390625 638.867188 L 728.390625 624.46875 L 398.433594 624.46875 Z M 398.433594 638.867188 " fill-opacity="1" fill-rule="nonzero"/><path fill="#504099" d="M 397.480469 655.039062 L 515.523438 655.039062 L 515.523438 671.304688 L 397.480469 671.304688 Z M 397.480469 655.039062 " fill-opacity="1" fill-rule="nonzero"/><path fill="#000000" d="M 516.457031 672.238281 L 396.542969 672.238281 L 396.542969 654.105469 L 516.457031 654.105469 Z M 398.433594 670.371094 L 514.605469 670.371094 L 514.605469 655.972656 L 398.433594 655.972656 Z M 398.433594 670.371094 " fill-opacity="1" fill-rule="nonzero"/><path fill="#974ec3" d="M 531.527344 655.039062 L 729.304688 655.039062 L 729.304688 671.304688 L 531.527344 671.304688 Z M 531.527344 655.039062 " fill-opacity="1" fill-rule="nonzero"/><path fill="#000000" d="M 730.238281 672.238281 L 530.589844 672.238281 L 530.589844 654.105469 L 730.238281 654.105469 Z M 532.460938 670.371094 L 728.371094 670.371094 L 728.371094 655.972656 L 532.460938 655.972656 Z M 532.460938 670.371094 " fill-opacity="1" fill-rule="nonzero"/><path fill="#313866" d="M 397.480469 490.679688 L 729.304688 490.679688 L 729.304688 608.277344 L 397.480469 608.277344 Z M 397.480469 490.679688 " fill-opacity="1" fill-rule="nonzero"/><path fill="#000000" d="M 730.238281 609.234375 L 396.5625 609.234375 L 396.5625 489.761719 L 730.257812 489.761719 L 730.257812 609.234375 Z M 398.433594 607.363281 L 728.390625 607.363281 L 728.390625 491.632812 L 398.433594 491.632812 Z M 398.433594 607.363281 " fill-opacity="1" fill-rule="nonzero"/><path fill="#974ec3" d="M 157.710938 457.230469 C 157.710938 457.5 157.683594 457.765625 157.632812 458.027344 C 157.578125 458.292969 157.5 458.550781 157.398438 458.796875 C 157.296875 459.046875 157.167969 459.28125 157.019531 459.503906 C 156.871094 459.730469 156.699219 459.933594 156.511719 460.125 C 156.320312 460.316406 156.113281 460.484375 155.890625 460.636719 C 155.667969 460.785156 155.429688 460.910156 155.183594 461.011719 C 154.933594 461.117188 154.679688 461.195312 154.414062 461.246094 C 154.152344 461.296875 153.882812 461.324219 153.617188 461.324219 C 153.347656 461.324219 153.082031 461.296875 152.816406 461.246094 C 152.554688 461.195312 152.296875 461.117188 152.050781 461.011719 C 151.800781 460.910156 151.566406 460.785156 151.339844 460.636719 C 151.117188 460.484375 150.910156 460.316406 150.722656 460.125 C 150.53125 459.933594 150.359375 459.730469 150.210938 459.503906 C 150.0625 459.28125 149.9375 459.046875 149.832031 458.796875 C 149.730469 458.546875 149.652344 458.292969 149.601562 458.027344 C 149.546875 457.765625 149.523438 457.5 149.523438 457.230469 C 149.523438 456.960938 149.546875 456.695312 149.601562 456.429688 C 149.652344 456.167969 149.730469 455.910156 149.832031 455.664062 C 149.9375 455.414062 150.0625 455.179688 150.210938 454.957031 C 150.359375 454.730469 150.53125 454.523438 150.722656 454.335938 C 150.910156 454.144531 151.117188 453.976562 151.339844 453.824219 C 151.566406 453.675781 151.800781 453.550781 152.050781 453.449219 C 152.296875 453.34375 152.554688 453.265625 152.816406 453.214844 C 153.082031 453.160156 153.347656 453.136719 153.617188 453.136719 C 153.882812 453.136719 154.152344 453.160156 154.414062 453.214844 C 154.679688 453.265625 154.933594 453.34375 155.183594 453.449219 C 155.429688 453.550781 155.667969 453.675781 155.890625 453.824219 C 156.113281 453.976562 156.320312 454.144531 156.511719 454.335938 C 156.699219 454.523438 156.871094 454.730469 157.019531 454.957031 C 157.167969 455.179688 157.296875 455.414062 157.398438 455.664062 C 157.5 455.910156 157.578125 456.167969 157.632812 456.429688 C 157.683594 456.695312 157.710938 456.960938 157.710938 457.230469 Z M 157.710938 457.230469 " fill-opacity="1" fill-rule="nonzero"/><path fill="#000000" d="M 153.617188 462.257812 C 150.847656 462.257812 148.585938 459.996094 148.585938 457.230469 C 148.585938 454.464844 150.847656 452.199219 153.617188 452.199219 C 156.382812 452.199219 158.644531 454.464844 158.644531 457.230469 C 158.644531 459.996094 156.382812 462.257812 153.617188 462.257812 Z M 153.617188 454.070312 C 151.878906 454.070312 150.457031 455.492188 150.457031 457.230469 C 150.457031 458.96875 151.878906 460.390625 153.617188 460.390625 C 155.355469 460.390625 156.777344 458.96875 156.777344 457.230469 C 156.777344 455.492188 155.355469 454.070312 153.617188 454.070312 Z M 153.617188 454.070312 " fill-opacity="1" fill-rule="nonzero"/><path fill="#974ec3" d="M 177.789062 457.230469 C 177.789062 457.5 177.761719 457.765625 177.710938 458.027344 C 177.65625 458.292969 177.582031 458.550781 177.476562 458.796875 C 177.375 459.046875 177.25 459.28125 177.097656 459.503906 C 176.949219 459.730469 176.78125 459.933594 176.589844 460.125 C 176.398438 460.316406 176.191406 460.484375 175.96875 460.636719 C 175.746094 460.785156 175.511719 460.910156 175.261719 461.011719 C 175.011719 461.117188 174.757812 461.195312 174.492188 461.246094 C 174.230469 461.296875 173.964844 461.324219 173.695312 461.324219 C 173.425781 461.324219 173.160156 461.296875 172.894531 461.246094 C 172.632812 461.195312 172.375 461.117188 172.128906 461.011719 C 171.878906 460.910156 171.644531 460.785156 171.421875 460.636719 C 171.195312 460.484375 170.988281 460.316406 170.800781 460.125 C 170.609375 459.933594 170.441406 459.730469 170.289062 459.503906 C 170.140625 459.28125 170.015625 459.046875 169.914062 458.796875 C 169.808594 458.546875 169.730469 458.292969 169.679688 458.027344 C 169.625 457.765625 169.601562 457.5 169.601562 457.230469 C 169.601562 456.960938 169.625 456.695312 169.679688 456.429688 C 169.730469 456.167969 169.808594 455.910156 169.914062 455.664062 C 170.015625 455.414062 170.140625 455.179688 170.289062 454.957031 C 170.441406 454.730469 170.609375 454.523438 170.800781 454.335938 C 170.988281 454.144531 171.195312 453.976562 171.421875 453.824219 C 171.644531 453.675781 171.878906 453.550781 172.128906 453.449219 C 172.375 453.34375 172.632812 453.265625 172.894531 453.214844 C 173.160156 453.160156 173.425781 453.136719 173.695312 453.136719 C 173.964844 453.136719 174.230469 453.160156 174.492188 453.214844 C 174.757812 453.265625 175.011719 453.34375 175.261719 453.449219 C 175.511719 453.550781 175.746094 453.675781 175.96875 453.824219 C 176.191406 453.976562 176.398438 454.144531 176.589844 454.335938 C 176.78125 454.523438 176.949219 454.730469 177.097656 454.957031 C 177.25 455.179688 177.375 455.414062 177.476562 455.664062 C 177.582031 455.910156 177.65625 456.167969 177.710938 456.429688 C 177.761719 456.695312 177.789062 456.960938 177.789062 457.230469 Z M 177.789062 457.230469 " fill-opacity="1" fill-rule="nonzero"/><path fill="#000000" d="M 173.695312 462.257812 C 170.929688 462.257812 168.664062 459.996094 168.664062 457.230469 C 168.664062 454.464844 170.929688 452.199219 173.695312 452.199219 C 176.460938 452.199219 178.722656 454.464844 178.722656 457.230469 C 178.722656 459.996094 176.460938 462.257812 173.695312 462.257812 Z M 173.695312 454.070312 C 171.957031 454.070312 170.535156 455.492188 170.535156 457.230469 C 170.535156 458.96875 171.957031 460.390625 173.695312 460.390625 C 175.433594 460.390625 176.855469 458.96875 176.855469 457.230469 C 176.855469 455.492188 175.433594 454.070312 173.695312 454.070312 Z M 173.695312 454.070312 " fill-opacity="1" fill-rule="nonzero"/><path fill="#974ec3" d="M 197.867188 457.230469 C 197.867188 457.5 197.84375 457.765625 197.789062 458.027344 C 197.738281 458.292969 197.660156 458.550781 197.554688 458.796875 C 197.453125 459.046875 197.328125 459.28125 197.179688 459.503906 C 197.027344 459.730469 196.859375 459.933594 196.667969 460.125 C 196.480469 460.316406 196.273438 460.484375 196.046875 460.636719 C 195.824219 460.785156 195.589844 460.910156 195.339844 461.011719 C 195.09375 461.117188 194.835938 461.195312 194.574219 461.246094 C 194.308594 461.296875 194.042969 461.324219 193.773438 461.324219 C 193.503906 461.324219 193.238281 461.296875 192.976562 461.246094 C 192.710938 461.195312 192.457031 461.117188 192.207031 461.011719 C 191.957031 460.910156 191.722656 460.785156 191.5 460.636719 C 191.277344 460.484375 191.070312 460.316406 190.878906 460.125 C 190.6875 459.933594 190.519531 459.730469 190.371094 459.503906 C 190.21875 459.28125 190.09375 459.046875 189.992188 458.796875 C 189.886719 458.546875 189.808594 458.292969 189.757812 458.027344 C 189.707031 457.765625 189.679688 457.5 189.679688 457.230469 C 189.679688 456.960938 189.707031 456.695312 189.757812 456.429688 C 189.808594 456.167969 189.886719 455.910156 189.992188 455.664062 C 190.09375 455.414062 190.21875 455.179688 190.371094 454.957031 C 190.519531 454.730469 190.6875 454.523438 190.878906 454.335938 C 191.070312 454.144531 191.277344 453.976562 191.5 453.824219 C 191.722656 453.675781 191.957031 453.550781 192.207031 453.449219 C 192.457031 453.34375 192.710938 453.265625 192.976562 453.214844 C 193.238281 453.160156 193.503906 453.136719 193.773438 453.136719 C 194.042969 453.136719 194.308594 453.160156 194.574219 453.214844 C 194.835938 453.265625 195.09375 453.34375 195.339844 453.449219 C 195.589844 453.550781 195.824219 453.675781 196.046875 453.824219 C 196.273438 453.976562 196.480469 454.144531 196.667969 454.335938 C 196.859375 454.523438 197.027344 454.730469 197.179688 454.957031 C 197.328125 455.179688 197.453125 455.414062 197.554688 455.664062 C 197.660156 455.910156 197.738281 456.167969 197.789062 456.429688 C 197.84375 456.695312 197.867188 456.960938 197.867188 457.230469 Z M 197.867188 457.230469 " fill-opacity="1" fill-rule="nonzero"/><path fill="#000000" d="M 193.773438 462.257812 C 191.007812 462.257812 188.746094 459.996094 188.746094 457.230469 C 188.746094 454.464844 191.007812 452.199219 193.773438 452.199219 C 196.539062 452.199219 198.804688 454.464844 198.804688 457.230469 C 198.804688 459.996094 196.539062 462.257812 193.773438 462.257812 Z M 193.773438 454.070312 C 192.035156 454.070312 190.613281 455.492188 190.613281 457.230469 C 190.613281 458.96875 192.035156 460.390625 193.773438 460.390625 C 195.511719 460.390625 196.933594 458.96875 196.933594 457.230469 C 196.933594 455.492188 195.511719 454.070312 193.773438 454.070312 Z M 193.773438 454.070312 " fill-opacity="1" fill-rule="nonzero"/></svg>